<svg viewBox="0 0 610 110" xmlns="http://www.w3.org/2000/svg" font-family="Arial, sans-serif">
  <rect width="610" height="110" fill="#ffffff"/>
  <g stroke="#1f2937" stroke-width="1.5" fill="none">
    <rect x="10" y="10" width="590" height="90"/>
    <line x1="10" y1="55" x2="600" y2="55"/>
    <line x1="120" y1="10" x2="120" y2="100"/>
    <line x1="195" y1="10" x2="195" y2="100"/>
    <line x1="270" y1="10" x2="270" y2="100"/>
    <line x1="345" y1="10" x2="345" y2="100"/>
    <line x1="420" y1="10" x2="420" y2="100"/>
    <line x1="495" y1="10" x2="495" y2="100"/>
  </g>
  <g font-size="15" fill="#1f2937" text-anchor="middle">
    <text x="65" y="37">Class</text>
    <text x="65" y="56">interval</text>
    <text x="157" y="37">0-9</text>
    <text x="232" y="37">10-19</text>
    <text x="307" y="37">20-29</text>
    <text x="382" y="37">30-39</text>
    <text x="457" y="37">40-49</text>
    <text x="552" y="37">50-59</text>
    <text x="65" y="82">Frequency</text>
    <text x="157" y="82">1</text>
    <text x="232" y="82">5</text>
    <text x="307" y="82">6</text>
    <text x="382" y="82">12</text>
    <text x="457" y="82">8</text>
    <text x="552" y="82">3</text>
  </g>
</svg>
